<svg xmlns="http://www.w3.org/2000/svg" version="1.1" xmlns:xlink="http://www.w3.org/1999/xlink" xmlns:svgjs="http://svgjs.dev/svgjs" viewBox="0 0 11.87404675141314 4.288988531627375"><g transform="matrix(1,0,0,1,4.107597741885819,0.6520382111261873)"><rect width="11.87404675141314" height="11.87404675141314" x="-4.107597741885819" y="-4.44456732101907" fill="#ffffff"></rect><g><path d=" M 0.027099609375 0.010986328125 L 0.208740234375 0.010986328125 L 0.29296875 0.766845703125 L 0.302490234375 0.943359375 L 0.32080078125 0.943359375 L 0.33837890625 0.744873046875 L 0.47314453125 0.010986328125 L 0.624755859375 0.010986328125 L 0.753662109375 0.744873046875 L 0.768310546875 0.943359375 L 0.787353515625 0.943359375 L 0.796142578125 0.766845703125 L 0.873046875 0.010986328125 L 1.055419921875 0.010986328125 L 0.88037109375 1.261962890625 L 0.687744140625 1.261962890625 L 0.58447265625 0.66064453125 L 0.55224609375 0.399169921875 L 0.53759765625 0.399169921875 L 0.506103515625 0.66064453125 L 0.397705078125 1.261962890625 L 0.207275390625 1.261962890625 L 0.027099609375 0.010986328125 M 1.4663085937500002 1.27294921875 Q 1.4362792968750002 1.27294921875 1.4011230468750002 1.2681884765625 Q 1.3659667968750002 1.263427734375 1.3315429687500002 1.248046875 Q 1.2971191406250002 1.232666015625 1.2652587890625002 1.2044677734375 Q 1.2333984375000002 1.17626953125 1.2088623046875002 1.130126953125 Q 1.1843261718750002 1.083984375 1.1696777343750002 1.0162353515625 Q 1.1550292968750002 0.948486328125 1.1550292968750002 0.854736328125 L 1.1550292968750002 0.41162109375 Q 1.1550292968750002 0.317138671875 1.1700439453125002 0.2501220703125 Q 1.1850585937500002 0.18310546875 1.2099609375000002 0.1373291015625 Q 1.2348632812500002 0.091552734375 1.2667236328125002 0.064453125 Q 1.2985839843750002 0.037353515625 1.3333740234375002 0.0230712890625 Q 1.3681640625000002 0.0087890625 1.4025878906250002 0.00439453125 Q 1.4370117187500002 0 1.4663085937500002 0 Q 1.4941406250000002 0 1.5281982421875002 0.0040283203125 Q 1.5622558593750002 0.008056640625 1.5963134765625002 0.0216064453125 Q 1.6303710937500002 0.03515625 1.6625976562500002 0.0618896484375 Q 1.6948242187500002 0.088623046875 1.7197265625000002 0.1343994140625 Q 1.7446289062500002 0.18017578125 1.7596435546875002 0.2479248046875 Q 1.7746582031250002 0.315673828125 1.7746582031250002 0.41162109375 L 1.7746582031250002 0.854736328125 Q 1.7746582031250002 0.94775390625 1.7592773437500002 1.0147705078125 Q 1.7438964843750002 1.081787109375 1.7189941406250002 1.1282958984375 Q 1.6940917968750002 1.1748046875 1.6614990234375002 1.2030029296875 Q 1.6289062500000002 1.231201171875 1.5948486328125002 1.2469482421875 Q 1.5607910156250002 1.2626953125 1.5270996093750002 1.267822265625 Q 1.4934082031250002 1.27294921875 1.4663085937500002 1.27294921875 M 1.4663085937500002 1.130126953125 Q 1.4941406250000002 1.130126953125 1.5150146484375002 1.12060546875 Q 1.5358886718750002 1.111083984375 1.5494384765625002 1.087646484375 Q 1.5629882812500002 1.064208984375 1.5699462890625002 1.0257568359375 Q 1.5769042968750002 0.9873046875 1.5769042968750002 0.9287109375 L 1.5769042968750002 0.359619140625 Q 1.5769042968750002 0.299560546875 1.5699462890625002 0.25927734375 Q 1.5629882812500002 0.218994140625 1.5494384765625002 0.1944580078125 Q 1.5358886718750002 0.169921875 1.5150146484375002 0.15966796875 Q 1.4941406250000002 0.1494140625 1.4663085937500002 0.1494140625 Q 1.4377441406250002 0.1494140625 1.4165039062500002 0.15966796875 Q 1.3952636718750002 0.169921875 1.3813476562500002 0.1944580078125 Q 1.3674316406250002 0.218994140625 1.3604736328125002 0.25927734375 Q 1.3535156250000002 0.299560546875 1.3535156250000002 0.359619140625 L 1.3535156250000002 0.9287109375 Q 1.3535156250000002 0.9873046875 1.3604736328125002 1.0257568359375 Q 1.3674316406250002 1.064208984375 1.3813476562500002 1.087646484375 Q 1.3952636718750002 1.111083984375 1.4165039062500002 1.12060546875 Q 1.4377441406250002 1.130126953125 1.4663085937500002 1.130126953125 M 1.9533691406250002 0.010986328125 L 2.14306640625 0.010986328125 L 2.14306640625 1.112548828125 L 2.401611328125 1.112548828125 L 2.401611328125 1.261962890625 L 1.9533691406250002 1.261962890625 L 1.9533691406250002 0.010986328125 M 2.52099609375 0.010986328125 L 2.999267578125 0.010986328125 L 2.999267578125 0.160400390625 L 2.710693359375 0.160400390625 L 2.710693359375 0.53466796875 L 2.93701171875 0.53466796875 L 2.93701171875 0.68408203125 L 2.710693359375 0.68408203125 L 2.710693359375 1.261962890625 L 2.52099609375 1.261962890625 L 2.52099609375 0.010986328125 M 3.4453125 0.010986328125 L 3.651123046875 0.010986328125 Q 3.686279296875 0.010986328125 3.7283935546875 0.013916015625 Q 3.7705078125 0.016845703125 3.8126220703125 0.0281982421875 Q 3.854736328125 0.03955078125 3.8939208984375 0.062255859375 Q 3.93310546875 0.0849609375 3.9635009765625 0.12451171875 Q 3.993896484375 0.1640625 4.01220703125 0.2237548828125 Q 4.030517578125 0.283447265625 4.030517578125 0.368408203125 L 4.030517578125 0.39990234375 Q 4.030517578125 0.542724609375 3.989501953125 0.6324462890625 Q 3.948486328125 0.72216796875 3.86865234375 0.76171875 L 4.0693359375 1.261962890625 L 3.86865234375 1.261962890625 L 3.702392578125 0.7939453125 L 3.63134765625 0.7939453125 L 3.63134765625 1.261962890625 L 3.4453125 1.261962890625 L 3.4453125 0.010986328125 M 3.659912109375 0.656982421875 Q 3.709716796875 0.656982421875 3.744140625 0.64599609375 Q 3.778564453125 0.635009765625 3.7998046875 0.6090087890625 Q 3.821044921875 0.5830078125 3.83056640625 0.5401611328125 Q 3.840087890625 0.497314453125 3.840087890625 0.434326171875 L 3.840087890625 0.33544921875 Q 3.840087890625 0.287109375 3.831298828125 0.251953125 Q 3.822509765625 0.216796875 3.8016357421875 0.194091796875 Q 3.78076171875 0.17138671875 3.746337890625 0.160400390625 Q 3.7119140625 0.1494140625 3.659912109375 0.1494140625 L 3.63134765625 0.1494140625 L 3.63134765625 0.656982421875 L 3.659912109375 0.656982421875 M 4.212158203125 0.010986328125 L 4.40185546875 0.010986328125 L 4.40185546875 1.261962890625 L 4.212158203125 1.261962890625 L 4.212158203125 0.010986328125 M 4.52197265625 0.010986328125 L 4.716064453125 0.010986328125 L 4.853759765625 1.001953125 L 4.86181640625 1.001953125 L 5.000244140625 0.010986328125 L 5.193603515625 0.010986328125 L 4.9658203125 1.261962890625 L 4.7490234375 1.261962890625 L 4.52197265625 0.010986328125 M 5.313720703125 0.010986328125 L 5.77734375 0.010986328125 L 5.77734375 0.160400390625 L 5.50341796875 0.160400390625 L 5.50341796875 0.53466796875 L 5.715087890625 0.53466796875 L 5.715087890625 0.68408203125 L 5.50341796875 0.68408203125 L 5.50341796875 1.112548828125 L 5.78466796875 1.112548828125 L 5.78466796875 1.261962890625 L 5.313720703125 1.261962890625 L 5.313720703125 0.010986328125 M 5.9208984375 0.010986328125 L 6.126708984375 0.010986328125 Q 6.161865234375 0.010986328125 6.2039794921875 0.013916015625 Q 6.24609375 0.016845703125 6.2882080078125 0.0281982421875 Q 6.330322265625 0.03955078125 6.3695068359375 0.062255859375 Q 6.40869140625 0.0849609375 6.4390869140625 0.12451171875 Q 6.469482421875 0.1640625 6.48779296875 0.2237548828125 Q 6.506103515625 0.283447265625 6.506103515625 0.368408203125 L 6.506103515625 0.39990234375 Q 6.506103515625 0.542724609375 6.465087890625 0.6324462890625 Q 6.424072265625 0.72216796875 6.34423828125 0.76171875 L 6.544921875 1.261962890625 L 6.34423828125 1.261962890625 L 6.177978515625 0.7939453125 L 6.10693359375 0.7939453125 L 6.10693359375 1.261962890625 L 5.9208984375 1.261962890625 L 5.9208984375 0.010986328125 M 6.135498046875 0.656982421875 Q 6.185302734375 0.656982421875 6.2197265625 0.64599609375 Q 6.254150390625 0.635009765625 6.275390625 0.6090087890625 Q 6.296630859375 0.5830078125 6.30615234375 0.5401611328125 Q 6.315673828125 0.497314453125 6.315673828125 0.434326171875 L 6.315673828125 0.33544921875 Q 6.315673828125 0.287109375 6.306884765625 0.251953125 Q 6.298095703125 0.216796875 6.2772216796875 0.194091796875 Q 6.25634765625 0.17138671875 6.221923828125 0.160400390625 Q 6.1875 0.1494140625 6.135498046875 0.1494140625 L 6.10693359375 0.1494140625 L 6.10693359375 0.656982421875 L 6.135498046875 0.656982421875 M 0.10693359375 1.7339355468750002 L 0.296630859375 1.7339355468750002 Q 0.33251953125 1.7339355468750002 0.3753662109375 1.7372314453125002 Q 0.418212890625 1.7405273437500002 0.4610595703125 1.7526123046875002 Q 0.50390625 1.7646972656250002 0.5438232421875 1.7895996093750002 Q 0.583740234375 1.8145019531250002 0.614501953125 1.8573486328125002 Q 0.645263671875 1.9001953125000002 0.6639404296875 1.9646484375000002 Q 0.6826171875 2.0291015625 0.6826171875 2.12138671875 L 0.6826171875 2.16533203125 Q 0.6826171875 2.265673828125 0.6654052734375 2.3370849609375 Q 0.648193359375 2.40849609375 0.61962890625 2.4572021484375 Q 0.591064453125 2.505908203125 0.5533447265625 2.535205078125 Q 0.515625 2.564501953125 0.4749755859375 2.5795166015625 Q 0.434326171875 2.59453125 0.3929443359375 2.5992919921875 Q 0.3515625 2.604052734375 0.31494140625 2.604052734375 L 0.296630859375 2.604052734375 L 0.296630859375 2.984912109375 L 0.10693359375 2.984912109375 L 0.10693359375 1.7339355468750002 M 0.30615234375 2.464892578125 Q 0.357421875 2.464892578125 0.392578125 2.4498779296875 Q 0.427734375 2.43486328125 0.4486083984375 2.4030029296875 Q 0.469482421875 2.371142578125 0.4786376953125 2.3209716796875 Q 0.48779296875 2.27080078125 0.48779296875 2.20048828125 L 0.48779296875 2.0876953125 Q 0.48779296875 2.03203125 0.479736328125 1.9913818359375002 Q 0.4716796875 1.9507324218750002 0.4508056640625 1.9243652343750002 Q 0.429931640625 1.8979980468750002 0.394775390625 1.8851806640625002 Q 0.359619140625 1.8723632812500002 0.30615234375 1.8723632812500002 L 0.296630859375 1.8723632812500002 L 0.296630859375 2.464892578125 L 0.30615234375 2.464892578125 M 0.7770996093749999 2.731494140625 Q 0.7770996093749999 2.6912109375 0.7818603515624999 2.6571533203125 Q 0.7866210937499999 2.623095703125 0.7961425781249999 2.583544921875 L 0.9433593749999999 2.583544921875 L 0.9433593749999999 2.6443359375 Q 0.9433593749999999 2.694873046875 0.9495849609374999 2.73369140625 Q 0.9558105468749999 2.772509765625 0.9700927734374999 2.7992431640625 Q 0.9843749999999999 2.8259765625 1.0081787109375 2.8395263671875 Q 1.031982421875 2.853076171875 1.06640625 2.853076171875 Q 1.12060546875 2.853076171875 1.149169921875 2.8234130859375 Q 1.177734375 2.79375 1.177734375 2.73662109375 Q 1.177734375 2.70732421875 1.1737060546875 2.6827880859375 Q 1.169677734375 2.658251953125 1.1597900390625 2.63408203125 Q 1.14990234375 2.609912109375 1.133056640625 2.5831787109375 Q 1.1162109375 2.5564453125 1.08984375 2.523486328125 L 0.8920898437499999 2.28837890625 Q 0.8393554687499999 2.22099609375 0.8107910156249999 2.1525146484375 Q 0.7822265624999999 2.084033203125 0.7822265624999999 2.006396484375 Q 0.7822265624999999 1.9441406250000002 0.8016357421874999 1.8921386718750002 Q 0.8210449218749999 1.8401367187500002 0.8576660156249999 1.8024169921875002 Q 0.8942871093749999 1.7646972656250002 0.9481201171874999 1.7438232421875002 Q 1.001953125 1.7229492187500002 1.070068359375 1.7229492187500002 Q 1.15283203125 1.7229492187500002 1.2081298828125 1.7463867187500002 Q 1.263427734375 1.7698242187500002 1.29638671875 1.8079101562500002 Q 1.329345703125 1.8459960937500002 1.3428955078125 1.8932373046875002 Q 1.3564453125 1.9404785156250002 1.3564453125 1.9880859375000002 Q 1.3564453125 2.028369140625 1.3502197265625 2.0624267578125 Q 1.343994140625 2.096484375 1.3359375 2.1375 L 1.189453125 2.1375 L 1.189453125 2.078173828125 Q 1.189453125 1.9785644531250002 1.160888671875 1.9254638671875002 Q 1.13232421875 1.8723632812500002 1.06787109375 1.8723632812500002 Q 1.014404296875 1.8723632812500002 0.9880371093749999 1.9020263671875002 Q 0.9616699218749999 1.9316894531250002 0.9616699218749999 1.9814941406250002 Q 0.9616699218749999 2.007861328125 0.9656982421874999 2.0291015625 Q 0.9697265624999999 2.050341796875 0.9774169921874999 2.0682861328125 Q 0.9851074218749999 2.08623046875 0.9960937499999999 2.103076171875 Q 1.007080078125 2.119921875 1.02099609375 2.138232421875 L 1.241455078125 2.404833984375 Q 1.301513671875 2.483203125 1.333740234375 2.5553466796875 Q 1.365966796875 2.627490234375 1.365966796875 2.708056640625 Q 1.365966796875 2.77470703125 1.3450927734375 2.828173828125 Q 1.32421875 2.881640625 1.285400390625 2.918994140625 Q 1.24658203125 2.95634765625 1.191650390625 2.9764892578125 Q 1.13671875 2.996630859375 1.06787109375 2.996630859375 Q 0.9829101562499999 2.996630859375 0.9268798828124999 2.97392578125 Q 0.8708496093749999 2.951220703125 0.8375244140624999 2.9138671875 Q 0.8041992187499999 2.876513671875 0.7906494140624999 2.82890625 Q 0.7770996093749999 2.781298828125 0.7770996093749999 2.731494140625 M 1.673583984375 2.5681640625 L 1.421630859375 1.7339355468750002 L 1.61279296875 1.7339355468750002 L 1.765869140625 2.33232421875 L 1.774658203125 2.33232421875 L 1.92626953125 1.7339355468750002 L 2.11669921875 1.7339355468750002 L 1.86328125 2.5681640625 L 1.86328125 2.984912109375 L 1.673583984375 2.984912109375 L 1.673583984375 2.5681640625 M 2.49609375 2.9958984375 Q 2.466796875 2.9958984375 2.4327392578125 2.9911376953125 Q 2.398681640625 2.986376953125 2.3646240234375 2.97099609375 Q 2.33056640625 2.955615234375 2.2994384765625 2.9274169921875 Q 2.268310546875 2.89921875 2.2445068359375 2.853076171875 Q 2.220703125 2.80693359375 2.2064208984375 2.7391845703125 Q 2.192138671875 2.671435546875 2.192138671875 2.577685546875 L 2.192138671875 2.1345703125 Q 2.192138671875 2.040087890625 2.206787109375 1.9730712890625002 Q 2.221435546875 1.9060546875000002 2.24560546875 1.8602783203125002 Q 2.269775390625 1.8145019531250002 2.30126953125 1.7874023437500002 Q 2.332763671875 1.7603027343750002 2.366455078125 1.7460205078125002 Q 2.400146484375 1.7317382812500002 2.4334716796875 1.7273437500000002 Q 2.466796875 1.7229492187500002 2.495361328125 1.7229492187500002 Q 2.570068359375 1.7229492187500002 2.6202392578125 1.7438232421875002 Q 2.67041015625 1.7646972656250002 2.7008056640625 1.8009521484375002 Q 2.731201171875 1.8372070312500002 2.7440185546875 1.8855468750000002 Q 2.7568359375 1.9338867187500002 2.7568359375 1.9880859375000002 Q 2.7568359375 2.028369140625 2.7528076171875 2.0624267578125 Q 2.748779296875 2.096484375 2.74072265625 2.1375 L 2.5869140625 2.1375 L 2.5869140625 2.073779296875 Q 2.5869140625 1.9705078125000002 2.564208984375 1.9192382812500002 Q 2.54150390625 1.8679687500000002 2.49755859375 1.8679687500000002 Q 2.47119140625 1.8679687500000002 2.451416015625 1.8782226562500002 Q 2.431640625 1.8884765625000002 2.41845703125 1.9130126953125002 Q 2.4052734375 1.9375488281250002 2.3983154296875 1.9778320312500002 Q 2.391357421875 2.018115234375 2.391357421875 2.078173828125 L 2.391357421875 2.649462890625 Q 2.391357421875 2.708056640625 2.3968505859375 2.746875 Q 2.40234375 2.785693359375 2.414794921875 2.809130859375 Q 2.42724609375 2.832568359375 2.4473876953125 2.8424560546875 Q 2.467529296875 2.85234375 2.49609375 2.85234375 Q 2.514404296875 2.85234375 2.53125 2.8439208984375 Q 2.548095703125 2.835498046875 2.5609130859375 2.8175537109375 Q 2.57373046875 2.799609375 2.5814208984375 2.7721435546875 Q 2.589111328125 2.744677734375 2.589111328125 2.70732421875 L 2.589111328125 2.585009765625 L 2.7626953125 2.585009765625 L 2.7626953125 2.700732421875 Q 2.7626953125 2.851611328125 2.69384765625 2.923388671875 Q 2.625 2.995166015625 2.49609375 2.9958984375 M 2.911376953125 1.7339355468750002 L 3.10107421875 1.7339355468750002 L 3.10107421875 2.2576171875 L 3.325927734375 2.2576171875 L 3.325927734375 1.7339355468750002 L 3.515625 1.7339355468750002 L 3.515625 2.984912109375 L 3.325927734375 2.984912109375 L 3.325927734375 2.40703125 L 3.10107421875 2.40703125 L 3.10107421875 2.984912109375 L 2.911376953125 2.984912109375 L 2.911376953125 1.7339355468750002 M 4.007080078125 2.9958984375 Q 3.97705078125 2.9958984375 3.94189453125 2.9911376953125 Q 3.90673828125 2.986376953125 3.872314453125 2.97099609375 Q 3.837890625 2.955615234375 3.8060302734375 2.9274169921875 Q 3.774169921875 2.89921875 3.7496337890625 2.853076171875 Q 3.72509765625 2.80693359375 3.71044921875 2.7391845703125 Q 3.69580078125 2.671435546875 3.69580078125 2.577685546875 L 3.69580078125 2.1345703125 Q 3.69580078125 2.040087890625 3.7108154296875 1.9730712890625002 Q 3.725830078125 1.9060546875000002 3.750732421875 1.8602783203125002 Q 3.775634765625 1.8145019531250002 3.8074951171875 1.7874023437500002 Q 3.83935546875 1.7603027343750002 3.8741455078125 1.7460205078125002 Q 3.908935546875 1.7317382812500002 3.943359375 1.7273437500000002 Q 3.977783203125 1.7229492187500002 4.007080078125 1.7229492187500002 Q 4.034912109375 1.7229492187500002 4.0689697265625 1.7269775390625002 Q 4.10302734375 1.7310058593750002 4.1370849609375 1.7445556640625002 Q 4.171142578125 1.7581054687500002 4.203369140625 1.7848388671875002 Q 4.235595703125 1.8115722656250002 4.260498046875 1.8573486328125002 Q 4.285400390625 1.9031250000000002 4.3004150390625 1.9708740234375002 Q 4.3154296875 2.038623046875 4.3154296875 2.1345703125 L 4.3154296875 2.577685546875 Q 4.3154296875 2.670703125 4.300048828125 2.7377197265625 Q 4.28466796875 2.804736328125 4.259765625 2.8512451171875 Q 4.23486328125 2.89775390625 4.2022705078125 2.9259521484375 Q 4.169677734375 2.954150390625 4.1356201171875 2.9698974609375 Q 4.1015625 2.98564453125 4.06787109375 2.990771484375 Q 4.0341796875 2.9958984375 4.007080078125 2.9958984375 M 4.007080078125 2.853076171875 Q 4.034912109375 2.853076171875 4.0557861328125 2.8435546875 Q 4.07666015625 2.834033203125 4.0902099609375 2.810595703125 Q 4.103759765625 2.787158203125 4.1107177734375 2.7487060546875 Q 4.11767578125 2.71025390625 4.11767578125 2.65166015625 L 4.11767578125 2.082568359375 Q 4.11767578125 2.022509765625 4.1107177734375 1.9822265625000002 Q 4.103759765625 1.9419433593750002 4.0902099609375 1.9174072265625002 Q 4.07666015625 1.8928710937500002 4.0557861328125 1.8826171875000002 Q 4.034912109375 1.8723632812500002 4.007080078125 1.8723632812500002 Q 3.978515625 1.8723632812500002 3.957275390625 1.8826171875000002 Q 3.93603515625 1.8928710937500002 3.922119140625 1.9174072265625002 Q 3.908203125 1.9419433593750002 3.9012451171875 1.9822265625000002 Q 3.894287109375 2.022509765625 3.894287109375 2.082568359375 L 3.894287109375 2.65166015625 Q 3.894287109375 2.71025390625 3.9012451171875 2.7487060546875 Q 3.908203125 2.787158203125 3.922119140625 2.810595703125 Q 3.93603515625 2.834033203125 3.957275390625 2.8435546875 Q 3.978515625 2.853076171875 4.007080078125 2.853076171875 M 4.494140625 1.7339355468750002 L 4.683837890625 1.7339355468750002 L 4.683837890625 2.835498046875 L 4.9423828125 2.835498046875 L 4.9423828125 2.984912109375 L 4.494140625 2.984912109375 L 4.494140625 1.7339355468750002 M 5.338623046875 2.9958984375 Q 5.30859375 2.9958984375 5.2734375 2.9911376953125 Q 5.23828125 2.986376953125 5.203857421875 2.97099609375 Q 5.16943359375 2.955615234375 5.1375732421875 2.9274169921875 Q 5.105712890625 2.89921875 5.0811767578125 2.853076171875 Q 5.056640625 2.80693359375 5.0419921875 2.7391845703125 Q 5.02734375 2.671435546875 5.02734375 2.577685546875 L 5.02734375 2.1345703125 Q 5.02734375 2.040087890625 5.0423583984375 1.9730712890625002 Q 5.057373046875 1.9060546875000002 5.082275390625 1.8602783203125002 Q 5.107177734375 1.8145019531250002 5.1390380859375 1.7874023437500002 Q 5.1708984375 1.7603027343750002 5.2056884765625 1.7460205078125002 Q 5.240478515625 1.7317382812500002 5.27490234375 1.7273437500000002 Q 5.309326171875 1.7229492187500002 5.338623046875 1.7229492187500002 Q 5.366455078125 1.7229492187500002 5.4005126953125 1.7269775390625002 Q 5.4345703125 1.7310058593750002 5.4686279296875 1.7445556640625002 Q 5.502685546875 1.7581054687500002 5.534912109375 1.7848388671875002 Q 5.567138671875 1.8115722656250002 5.592041015625 1.8573486328125002 Q 5.616943359375 1.9031250000000002 5.6319580078125 1.9708740234375002 Q 5.64697265625 2.038623046875 5.64697265625 2.1345703125 L 5.64697265625 2.577685546875 Q 5.64697265625 2.670703125 5.631591796875 2.7377197265625 Q 5.6162109375 2.804736328125 5.59130859375 2.8512451171875 Q 5.56640625 2.89775390625 5.5338134765625 2.9259521484375 Q 5.501220703125 2.954150390625 5.4671630859375 2.9698974609375 Q 5.43310546875 2.98564453125 5.3994140625 2.990771484375 Q 5.36572265625 2.9958984375 5.338623046875 2.9958984375 M 5.338623046875 2.853076171875 Q 5.366455078125 2.853076171875 5.3873291015625 2.8435546875 Q 5.408203125 2.834033203125 5.4217529296875 2.810595703125 Q 5.435302734375 2.787158203125 5.4422607421875 2.7487060546875 Q 5.44921875 2.71025390625 5.44921875 2.65166015625 L 5.44921875 2.082568359375 Q 5.44921875 2.022509765625 5.4422607421875 1.9822265625000002 Q 5.435302734375 1.9419433593750002 5.4217529296875 1.9174072265625002 Q 5.408203125 1.8928710937500002 5.3873291015625 1.8826171875000002 Q 5.366455078125 1.8723632812500002 5.338623046875 1.8723632812500002 Q 5.31005859375 1.8723632812500002 5.288818359375 1.8826171875000002 Q 5.267578125 1.8928710937500002 5.253662109375 1.9174072265625002 Q 5.23974609375 1.9419433593750002 5.2327880859375 1.9822265625000002 Q 5.225830078125 2.022509765625 5.225830078125 2.082568359375 L 5.225830078125 2.65166015625 Q 5.225830078125 2.71025390625 5.2327880859375 2.7487060546875 Q 5.23974609375 2.787158203125 5.253662109375 2.810595703125 Q 5.267578125 2.834033203125 5.288818359375 2.8435546875 Q 5.31005859375 2.853076171875 5.338623046875 2.853076171875 M 6.078369140625 2.996630859375 Q 6.056396484375 2.996630859375 6.027099609375 2.9918701171875 Q 5.997802734375 2.987109375 5.9666748046875 2.971728515625 Q 5.935546875 2.95634765625 5.905517578125 2.9281494140625 Q 5.87548828125 2.899951171875 5.8516845703125 2.8534423828125 Q 5.827880859375 2.80693359375 5.813232421875 2.7391845703125 Q 5.798583984375 2.671435546875 5.798583984375 2.577685546875 L 5.798583984375 2.1345703125 Q 5.798583984375 2.040087890625 5.81396484375 1.9730712890625002 Q 5.829345703125 1.9060546875000002 5.85498046875 1.8602783203125002 Q 5.880615234375 1.8145019531250002 5.9139404296875 1.7874023437500002 Q 5.947265625 1.7603027343750002 5.983154296875 1.7460205078125002 Q 6.01904296875 1.7317382812500002 6.05419921875 1.7273437500000002 Q 6.08935546875 1.7229492187500002 6.119384765625 1.7229492187500002 Q 6.195556640625 1.7229492187500002 6.2479248046875 1.7438232421875002 Q 6.30029296875 1.7646972656250002 6.3328857421875 1.8009521484375002 Q 6.365478515625 1.8372070312500002 6.3797607421875 1.8855468750000002 Q 6.39404296875 1.9338867187500002 6.39404296875 1.9880859375000002 Q 6.39404296875 2.028369140625 6.3892822265625 2.0624267578125 Q 6.384521484375 2.096484375 6.37646484375 2.1375 L 6.224853515625 2.1375 L 6.224853515625 2.078173828125 Q 6.224853515625 1.8723632812500002 6.1142578125 1.8723632812500002 Q 6.084228515625 1.8723632812500002 6.062255859375 1.8826171875000002 Q 6.040283203125 1.8928710937500002 6.025634765625 1.9174072265625002 Q 6.010986328125 1.9419433593750002 6.0040283203125 1.9822265625000002 Q 5.9970703125 2.022509765625 5.9970703125 2.082568359375 L 5.9970703125 2.649462890625 Q 5.9970703125 2.708056640625 6.0040283203125 2.746875 Q 6.010986328125 2.785693359375 6.0252685546875 2.809130859375 Q 6.03955078125 2.832568359375 6.0611572265625 2.8424560546875 Q 6.082763671875 2.85234375 6.11279296875 2.85234375 Q 6.144287109375 2.85234375 6.1669921875 2.8358642578125 Q 6.189697265625 2.819384765625 6.204345703125 2.7908203125 Q 6.218994140625 2.762255859375 6.2259521484375 2.7234375 Q 6.23291015625 2.684619140625 6.23291015625 2.639208984375 L 6.23291015625 2.47587890625 L 6.135498046875 2.47587890625 L 6.135498046875 2.3513671875 L 6.41748046875 2.3513671875 L 6.41748046875 2.984912109375 L 6.29150390625 2.984912109375 L 6.27099609375 2.866259765625 Q 6.235107421875 2.93583984375 6.1885986328125 2.9662353515625 Q 6.14208984375 2.996630859375 6.078369140625 2.996630859375 M 6.740478515625 2.5681640625 L 6.488525390625 1.7339355468750002 L 6.6796875 1.7339355468750002 L 6.832763671875 2.33232421875 L 6.841552734375 2.33232421875 L 6.9931640625 1.7339355468750002 L 7.18359375 1.7339355468750002 L 6.93017578125 2.5681640625 L 6.93017578125 2.984912109375 L 6.740478515625 2.984912109375 L 6.740478515625 2.5681640625" fill="#52414c" fill-rule="nonzero"></path></g><g></g><g clip-path="url(#SvgjsClipPath1003)"><g clip-path="url(#SvgjsClipPath1001dc70eeae-7d4e-4d6f-8af7-1cd5643f4e7a)"><path d=" M -2.2838942196418284 2.687584172479904 L -3.2922229723493186 1.6792554197724134 C -3.3421731698734765 1.6293654790289174 -3.3702399696098744 1.5616640224909135 -3.3702399696098744 1.491066370829602 C -3.3702399696098744 1.42046871916829 -3.3421731698734765 1.3527672626302862 -3.2922229723493186 1.3028773218867902 L -2.5642871766447186 0.5754586178502454 C -2.5820953468458105 0.5132749034509861 -2.593275031380688 0.4493817063708443 -2.5976395892342743 0.38484570171342514 L -3.4040440455662395 1.1911855215868838 C -3.4836680925716417 1.2708019339240872 -3.528401058252807 1.3787895443523046 -3.528401058252807 1.4913895531221362 C -3.528401058252807 1.603989561891968 -3.4836680925716417 1.711977172320185 -3.4040440455662395 1.7915935846573887 L -2.2858333133970348 2.9098043168265932 C -2.2905212606207357 2.83578040142837 -2.2898732205389143 2.7615150080515956 -2.2838942196418284 2.6875841724799043 Z" fill="#52414c" transform="matrix(1,0,0,1,0,0)" fill-rule="nonzero"></path></g><g clip-path="url(#SvgjsClipPath1001dc70eeae-7d4e-4d6f-8af7-1cd5643f4e7a)"><path d=" M -2.3520210469080904 0.362804669362576 L -2.152682208872841 0.16359510424433965 C -2.048762799454906 0.059687018260868946 -1.880288156863659 0.05968701826086889 -1.7763687474457246 0.16359510424433965 L -1.445947171558501 0.4939520436730567 C -1.4159558548113038 0.43487432059775877 -1.3915879099542061 0.3814846058710673 -1.3741360661573454 0.3416685474308228 L -1.6639013096437352 0.05151548519339162 C -1.7435177219809386 -0.028108561812010796 -1.851505332409156 -0.0728415274931762 -1.9641053411789875 -0.0728415274931762 C -2.0767053499488193 -0.0728415274931762 -2.1846929603770366 -0.028108561812010796 -2.26430937271424 0.051515485193391664 L -2.4360484429670484 0.22318991898769264 C -2.4200186012573397 0.25324587219339667 -2.3920956511823626 0.3024988535756472 -2.3520210469080904 0.362804669362576 Z" fill="#14080e" transform="matrix(1,0,0,1,0,0)" fill-rule="nonzero"></path></g><g clip-path="url(#SvgjsClipPath1001dc70eeae-7d4e-4d6f-8af7-1cd5643f4e7a)"><path d=" M -0.5243605461672569 1.1911855215868838 L -1.195416258385793 0.5200651729098403 C -1.2031506755622416 0.5819618608475576 -1.217340219322236 0.6428794136003908 -1.2377531387078067 0.7018228942312175 L -0.6366340745937253 1.3029419583452972 C -0.5866838770695675 1.3528318990887933 -0.5586170773331691 1.4205333556267972 -0.5586170773331691 1.491131007288109 C -0.5586170773331691 1.5617286589494206 -0.5866838770695675 1.6294301154874244 -0.6366340745937253 1.6793200562309203 L -1.6564681169154427 2.699606553762186 C -1.6668099502765452 2.777945941472537 -1.6758590544675098 2.861197700029412 -1.6830983378202817 2.949232556515797 C -1.6766346919695925 2.9434152752501763 -1.6701710461189034 2.937468721067543 -1.6637074002682144 2.9312636210508813 L -0.5241666367917359 1.7915935846573892 C -0.44454258978633376 1.7119771723201858 -0.3998096241051683 1.6039895618919684 -0.3998096241051683 1.4913895531221368 C -0.3998096241051683 1.378789544352305 -0.44454258978633376 1.270801933924088 -0.5241666367917359 1.191185521586884 Z" fill="#14080e" transform="matrix(1,0,0,1,0,0)" fill-rule="nonzero"></path></g><g clip-path="url(#SvgjsClipPath1001dc70eeae-7d4e-4d6f-8af7-1cd5643f4e7a)"><path d=" M -1.893554646718717 2.887504738641716 C -1.9165409087988907 2.893866230005693 -1.9402874263766978 2.8970628766027056 -1.9641376594082407 2.8970062980422284 C -1.9945434730787353 2.897041011521409 -2.024731850540397 2.891882099804572 -2.053400608606257 2.881752093834603 C -2.0726191822689723 2.9299708918807434 -2.090501935789212 2.979762510417218 -2.1070488691669755 3.031126949444027 C -2.0239080615012854 3.060367351963335 -1.9337927291452575 3.0633681880182553 -1.8488908538904554 3.0397235984254434 C -1.8672476081064124 2.985493609738162 -1.8819200841874766 2.93481862626876 -1.893554646718717 2.887504738641716 Z" fill="#52414c" transform="matrix(1,0,0,1,0,0)" fill-rule="nonzero"></path></g><g clip-path="url(#SvgjsClipPath1001dc70eeae-7d4e-4d6f-8af7-1cd5643f4e7a)"><path d=" M -1.7299597702377771 0.8358142727160002 C -1.6530059378017603 0.7778604013326994 -1.6289170798134363 0.672938829619116 -1.672885777376193 0.5872224532984994 C -1.6864663026376827 0.5457127723168845 -1.717540559959167 0.5122303099748708 -1.757923074595981 0.49559490215958246 C -1.7983055892327946 0.4789594943442942 -1.8439471433419887 0.4808391993912805 -1.8828249946065734 0.5007388718162801 C -1.9596609474442024 0.5587691602970722 -1.9837282782277041 0.6635969679905583 -1.9398989874681576 0.7493306912337806 C -1.9263184622066671 0.7908403722153957 -1.895244204885183 0.8243228345574094 -1.8548616902483692 0.8409582423726977 C -1.8144791756115555 0.8575936501879862 -1.7688376215023613 0.8557139451409996 -1.7299597702377771 0.8358142727160002 Z" fill="#14080e" transform="matrix(1,0,0,1,0,0)" fill-rule="nonzero"></path></g><g clip-path="url(#SvgjsClipPath1001dc70eeae-7d4e-4d6f-8af7-1cd5643f4e7a)"><path d=" M -1.273561736720624 0.29674620876853397 C -1.273561736720624 0.29674620876853397 -1.4879608695879796 0.8544295727659846 -1.758335175522302 1.0218380002988308 C -2.0834187446447077 0.8332267292793358 -2.347995070775423 0.5558475995706007 -2.5210453859036086 0.22222037211008977 C -2.5465419109697085 0.4842645036759031 -2.4560332624873755 0.7443351530597666 -2.273358476905205 0.93393241672946 L -1.817865353807148 1.4223901336660307 C -1.8148274402573246 1.4254280472158547 -1.8126944371265972 1.4288537795167198 -1.8099150694108006 1.4321502389005711 C -1.7485750702877614 1.5037674349262058 -1.513492270698201 1.751583616841624 -1.5521448728853215 1.9223531402168283 C -1.3734897015722765 1.6588302988842358 -1.4806569497767006 1.2768288291085137 -1.4806569497767006 1.2768288291085137 C -1.5447116801570289 1.0414228472264186 -1.4319856965210125 0.9433047032129589 -1.3864816297321614 0.842988919610265 C -1.2865644221191261 0.6795402127498547 -1.2466413500288027 0.4864149224033598 -1.273561736720624 0.296746208768534 Z" fill="#14080e" transform="matrix(1,0,0,1,0,0)" fill-rule="nonzero"></path></g><g clip-path="url(#SvgjsClipPath1001dc70eeae-7d4e-4d6f-8af7-1cd5643f4e7a)"><path d=" M -1.765962277626115 3.049095884908942 C -1.74651281827549 2.6841916222680373 -1.6834308935764972 2.3229298808201992 -1.5780640927465914 1.973028123686257 C -1.6746770230706791 2.107821028821641 -1.762112121196298 2.2489610143363463 -1.8397771132409813 2.395492016487261 C -1.8583277768324615 2.512613279301752 -1.8885130029551795 2.7069751100319714 -1.765962277626115 3.049095884908942 Z" fill="#14080e" transform="matrix(1,0,0,1,0,0)" fill-rule="nonzero"></path></g><g clip-path="url(#SvgjsClipPath1001dc70eeae-7d4e-4d6f-8af7-1cd5643f4e7a)"><path d=" M -1.906417301961588 1.38936090336901 C -1.8428150267908074 1.435834517035464 -1.827948641334223 1.5823007320120777 -1.8664073341458227 1.670077042664435 C -1.8664073341458227 1.670077042664435 -2.0619972575876733 2.1717205971364115 -2.09780585560049 2.258268815077138 C -2.2083366649439355 2.509265314239268 -2.241877489251248 2.7874224521064175 -2.194178815234264 3.0574986245148383 C -2.035560946058355 2.526639390797747 -1.7148994754056714 2.1352009980800184 -1.5947402990413622 1.9799442247464678 C -1.5831082422092855 1.963607477352987 -1.5761373687581615 1.9444152328192832 -1.5745737239872122 1.9244215068890487 C -1.5741859052361713 1.7843543013046173 -1.8355111069795293 1.4403590691309465 -1.906417301961588 1.38936090336901 Z" fill="#52414c" transform="matrix(1,0,0,1,0,0)" fill-rule="nonzero"></path></g></g></g><defs><clipPath id="SvgjsClipPath1003"><path d=" M -3.5284045917334965 -0.07284506097386556 h 3.1284045917334966 v 3.1306022313227313 h -3.1284045917334966 Z"></path></clipPath><clipPath id="SvgjsClipPath1001dc70eeae-7d4e-4d6f-8af7-1cd5643f4e7a"><path d=" M -3.5284045917334965 -0.07284506097386556 L -0.3999999999999999 -0.07284506097386556 L -0.3999999999999999 3.0577571703488657 L -3.5284045917334965 3.0577571703488657 Z"></path></clipPath></defs></svg>