<?xml version="1.0" encoding="UTF-8" standalone="no"?>
<!-- Created with Inkscape (http://www.inkscape.org/) -->

<svg
   width="6.441391mm"
   height="1.8823395mm"
   viewBox="0 0 6.441391 1.8823395"
   version="1.1"
   id="svg5"
   xml:space="preserve"
   xmlns:inkscape="http://www.inkscape.org/namespaces/inkscape"
   xmlns:sodipodi="http://sodipodi.sourceforge.net/DTD/sodipodi-0.dtd"
   xmlns="http://www.w3.org/2000/svg"
   xmlns:svg="http://www.w3.org/2000/svg"><sodipodi:namedview
     id="namedview7"
     pagecolor="#ffffff"
     bordercolor="#000000"
     borderopacity="0.25"
     inkscape:showpageshadow="2"
     inkscape:pageopacity="0.0"
     inkscape:pagecheckerboard="0"
     inkscape:deskcolor="#d1d1d1"
     inkscape:document-units="mm"
     showgrid="false" /><defs
     id="defs2"><clipPath
       id="SvgjsClipPath1002"><path
         d="M -3.5284046,-0.07284506 H -0.4 V 3.0577572 h -3.1284046 z"
         id="path51" /></clipPath><clipPath
       id="SvgjsClipPath1001150dddba-a730-4a90-8536-a20c37069295"><path
         d="M -3.5284046,-0.07284506 H -0.4 V 3.0577572 h -3.1284046 z"
         id="path54" /></clipPath></defs><g
     inkscape:label="Layer 1"
     inkscape:groupmode="layer"
     id="layer1"
     transform="translate(-83.986345,-194.29109)"><g
       transform="matrix(0.60132576,0,0,0.60132576,86.108061,194.33488)"
       id="g49"
       inkscape:export-filename="g49.svg"
       inkscape:export-xdpi="96"
       inkscape:export-ydpi="96"><g
         id="g11"><path
           d="m 0.02709961,0.01098633 h 0.18164062 l 0.0842285,0.75585937 0.009521,0.17651368 h 0.0183105 L 0.33837891,0.74487305 0.47314453,0.01098633 h 0.15161133 l 0.12890625,0.73388672 0.0146484,0.19848633 h 0.019043 L 0.79614258,0.7668457 0.87304688,0.01098633 H 1.0554199 L 0.88037109,1.2619629 H 0.68774414 L 0.58447266,0.66064453 0.55224609,0.39916992 H 0.53759766 L 0.50610352,0.66064453 0.39770508,1.2619629 H 0.20727539 L 0.02709961,0.01098633 M 1.4663086,1.2729492 q -0.030029,0 -0.065186,-0.00476 -0.035156,-0.00476 -0.06958,-0.020142 Q 1.2971191,1.232666 1.2652588,1.2044678 1.2333984,1.1762695 1.2088623,1.130127 1.1843262,1.0839844 1.1696777,1.0162354 1.1550293,0.94848633 1.1550293,0.85473633 V 0.41162109 q 0,-0.0944824 0.015015,-0.16149902 0.015015,-0.0670166 0.039917,-0.11279297 0.024902,-0.04577637 0.056763,-0.07287598 0.03186,-0.0270996 0.06665,-0.04138183 0.03479,-0.01428223 0.069214,-0.01867676 Q 1.4370117,0 1.4663086,0 q 0.027832,0 0.06189,0.00402832 0.034058,0.00402832 0.068115,0.01757813 0.034058,0.0135498 0.066284,0.0402832 0.032226,0.0267334 0.057129,0.07250976 0.024902,0.0457764 0.039917,0.11352539 0.015015,0.067749 0.015015,0.16369629 v 0.44311524 q 0,0.0930176 -0.015381,0.16003417 -0.015381,0.067017 -0.040283,0.1135254 -0.024902,0.046509 -0.057495,0.074707 -0.032593,0.028198 -0.06665,0.043945 -0.034058,0.015747 -0.067749,0.020874 -0.033691,0.00513 -0.060791,0.00513 m 0,-0.1428222 q 0.027832,0 0.048706,-0.00952 0.020874,-0.00952 0.034424,-0.032959 0.01355,-0.023437 0.020508,-0.06189 0.00696,-0.0384521 0.00696,-0.0970459 V 0.359623 q 0,-0.0600586 -0.00696,-0.1003418 Q 1.5629876,0.218998 1.5494396,0.1944619 1.5358896,0.1699258 1.5150156,0.1596719 1.4941416,0.149418 1.4663096,0.149418 q -0.028565,0 -0.049805,0.0102539 -0.02124,0.0102539 -0.035156,0.03479 -0.013916,0.0245361 -0.020874,0.0648193 -0.00696,0.0402832 -0.00696,0.1003418 v 0.5690918 q 0,0.0585938 0.00696,0.0970459 0.00696,0.038452 0.020874,0.06189 0.013916,0.023437 0.035156,0.032959 0.02124,0.00952 0.049805,0.00952 M 1.9533691,0.01098633 H 2.1430664 V 1.1125488 H 2.4016113 V 1.2619629 H 1.9533691 V 0.01098633 m 0.567627,0 H 2.9992676 V 0.16040039 H 2.7106934 V 0.53466797 H 2.9370117 V 0.68408203 H 2.7106934 V 1.2619629 H 2.5209961 V 0.01098633 m 0.9243164,0 H 3.651123 q 0.035156,0 0.077271,0.0029297 0.042114,0.0029297 0.084229,0.01428222 0.042114,0.01135254 0.081299,0.03405762 0.039185,0.02270508 0.06958,0.06225586 0.030396,0.0395508 0.048706,0.0992432 0.018311,0.0596924 0.018311,0.14465332 v 0.0314941 q 0,0.14282227 -0.041016,0.23254395 Q 3.948487,0.722168 3.8686533,0.76171876 L 4.0693359,1.2619629 H 3.8686523 L 3.7023926,0.79394531 H 3.6313477 V 1.2619629 H 3.4453125 V 0.01098633 m 0.2145996,0.64599609 q 0.049805,0 0.084229,-0.0109863 0.034424,-0.0109863 0.055664,-0.0369873 0.02124,-0.026001 0.030762,-0.0688477 0.00952,-0.0428467 0.00952,-0.10583496 v -0.098877 q 0,-0.0483398 -0.00879,-0.0834961 -0.00879,-0.0351563 -0.029663,-0.0578613 -0.020874,-0.0227051 -0.055298,-0.0336914 -0.034424,-0.0109863 -0.086426,-0.0109863 h -0.028564 v 0.50756836 h 0.028564 M 4.2121582,0.01098633 H 4.4018555 V 1.2619629 H 4.2121582 V 0.01098633 m 0.3098145,0 H 4.7160645 L 4.8537598,1.0019531 h 0.00806 L 5.0002441,0.01098633 H 5.1936035 L 4.9658203,1.2619629 H 4.7490234 L 4.5219727,0.01098633 m 0.791748,0 h 0.463623 V 0.16040039 H 5.503418 V 0.53466797 H 5.7150879 V 0.68408203 H 5.503418 V 1.1125488 h 0.28125 V 1.2619629 H 5.3137207 V 0.01098633 m 0.6071777,0 H 6.126709 q 0.035156,0 0.077271,0.0029297 0.042114,0.0029297 0.084229,0.01428222 0.042114,0.01135254 0.081299,0.03405762 0.039185,0.02270508 0.06958,0.06225586 0.030396,0.0395508 0.048706,0.0992432 0.018311,0.0596924 0.018311,0.14465332 v 0.0314941 q 0,0.14282227 -0.041016,0.23254395 Q 6.424073,0.722168 6.3442394,0.76171876 L 6.5449219,1.2619629 H 6.3442383 L 6.1779785,0.79394531 H 6.1069336 V 1.2619629 H 5.9208984 V 0.01098633 M 6.135498,0.65698242 q 0.049805,0 0.084229,-0.0109863 0.034424,-0.0109863 0.055664,-0.0369873 0.02124,-0.026001 0.030762,-0.0688477 0.00952,-0.0428467 0.00952,-0.10583496 v -0.098877 q 0,-0.0483398 -0.00879,-0.0834961 Q 6.2980957,0.21679688 6.2772217,0.1940918 6.2563477,0.17138672 6.2219238,0.16040039 6.1875,0.14941406 6.135498,0.14941406 H 6.1069336 V 0.65698242 H 6.135498 M 0.10693359,1.7339355 h 0.18969727 q 0.0358887,0 0.0787353,0.0033 0.0428467,0.0033 0.0856934,0.015381 0.0428467,0.012085 0.0827637,0.036987 0.039917,0.024902 0.0706787,0.067749 0.0307617,0.042847 0.0494385,0.1072998 0.0186768,0.064453 0.0186768,0.1567383 v 0.043945 q 0,0.1003418 -0.0172119,0.171753 -0.0172119,0.071411 -0.0457764,0.1201171 -0.0285645,0.048706 -0.0662842,0.078003 -0.0377197,0.029297 -0.0783691,0.044311 -0.0406494,0.015015 -0.0820313,0.019775 -0.0413818,0.00476 -0.0780029,0.00476 H 0.29663086 V 2.9849121 H 0.10693359 V 1.7339355 m 0.19921875,0.7309571 q 0.0512695,0 0.0864258,-0.015015 0.0351563,-0.015015 0.0560303,-0.046875 0.020874,-0.03186 0.0300293,-0.082031 0.009155,-0.050171 0.009155,-0.1204834 v -0.112793 q 0,-0.055664 -0.008057,-0.096313 -0.008057,-0.040649 -0.0289307,-0.067017 -0.020874,-0.026367 -0.0560303,-0.039184 -0.0351563,-0.012817 -0.088623,-0.012817 h -0.009521 v 0.5925293 h 0.009521 M 0.77709901,2.731495 q 0,-0.040283 0.004761,-0.074341 0.004761,-0.034058 0.0142822,-0.073608 H 0.943359 v 0.060791 q 0,0.050537 0.006226,0.089355 0.006226,0.038818 0.0205078,0.065552 0.0142822,0.026733 0.0380859,0.040283 0.023804,0.01355 0.058228,0.01355 0.054199,0 0.082764,-0.029663 0.028565,-0.029663 0.028565,-0.086792 0,-0.029297 -0.00403,-0.053833 Q 1.1696757,2.658253 1.1597897,2.634083 1.1498997,2.609913 1.1330567,2.58318 1.1162107,2.556447 1.0898437,2.523488 L 0.89208984,2.2883789 q -0.0527344,-0.067383 -0.0812988,-0.1358643 -0.0285645,-0.068481 -0.0285645,-0.1461181 0,-0.062256 0.0194092,-0.1142578 0.0194092,-0.052002 0.0560303,-0.089722 0.0366211,-0.03772 0.0904541,-0.058594 0.053833,-0.020874 0.12194826,-0.020874 0.082764,0 0.1380615,0.023437 0.055298,0.023437 0.088257,0.061524 0.032959,0.038086 0.046509,0.085327 0.01355,0.047241 0.01355,0.094849 0,0.040283 -0.00623,0.074341 -0.00623,0.034058 -0.014282,0.075073 H 1.1894531 v -0.059326 q 0,-0.099609 -0.028564,-0.1527099 -0.028565,-0.053101 -0.093018,-0.053101 -0.053467,0 -0.079834,0.029663 -0.0263672,0.029663 -0.0263672,0.079468 0,0.026367 0.004028,0.047608 0.004028,0.02124 0.0117188,0.039184 0.00769,0.017944 0.0186768,0.03479 0.0109864,0.016846 0.0249024,0.035156 l 0.220459,0.2666016 q 0.060059,0.078369 0.092285,0.1505127 0.032227,0.072144 0.032227,0.1527099 0,0.06665 -0.020874,0.1201172 -0.020874,0.053467 -0.059692,0.09082 -0.038818,0.037354 -0.09375,0.057495 -0.054932,0.020142 -0.1237793,0.020142 -0.0849609,0 -0.14099122,-0.022705 -0.0560303,-0.022705 -0.0893555,-0.060059 -0.0333252,-0.037354 -0.046875,-0.084961 -0.0135498,-0.047607 -0.0135498,-0.097412 M 1.673584,2.5681641 1.4216309,1.7339355 H 1.612793 l 0.1530761,0.5983887 h 0.00879 L 1.9262695,1.7339355 h 0.1904297 l -0.253418,0.8342286 v 0.416748 H 1.673584 v -0.416748 m 0.8225098,0.4277343 q -0.029297,0 -0.063354,-0.00476 Q 2.3986816,2.986377 2.364624,2.9709961 2.3305664,2.9556152 2.2994385,2.927417 2.2683105,2.8992188 2.2445068,2.8530762 2.2207031,2.8069336 2.2064209,2.7391846 2.1921387,2.6714355 2.1921387,2.5776855 V 2.1345703 q 0,-0.094482 0.014648,-0.161499 0.014648,-0.067017 0.038818,-0.112793 0.02417,-0.045776 0.055664,-0.072876 0.031494,-0.0271 0.065186,-0.041382 0.033691,-0.014282 0.067017,-0.018677 0.033325,-0.00439 0.06189,-0.00439 0.074707,0 0.124878,0.020874 0.050171,0.020874 0.080566,0.057129 0.030396,0.036255 0.043213,0.084595 0.012817,0.04834 0.012817,0.102539 0,0.040283 -0.00403,0.074341 -0.00403,0.034058 -0.012085,0.075073 H 2.5869141 v -0.063721 q 0,-0.1032715 -0.022705,-0.154541 -0.022705,-0.051269 -0.06665,-0.051269 -0.026367,0 -0.046143,0.010254 -0.019775,0.010254 -0.032959,0.03479 -0.013184,0.024536 -0.020142,0.064819 -0.00696,0.040283 -0.00696,0.1003418 v 0.5712891 q 0,0.058594 0.00549,0.097412 0.00549,0.038818 0.017944,0.062256 0.012451,0.023437 0.032593,0.033325 0.020142,0.00989 0.048706,0.00989 0.01831,0 0.035156,-0.00842 0.016846,-0.00842 0.029663,-0.026367 0.012817,-0.017944 0.020508,-0.04541 0.00769,-0.027466 0.00769,-0.064819 V 2.5850098 h 0.173584 v 0.1157226 q 0,0.1508789 -0.068848,0.2226563 Q 2.625,2.995166 2.4960938,2.9958984 M 2.911377,1.7339355 H 3.1010742 V 2.2576172 H 3.3259277 V 1.7339355 H 3.515625 V 2.9849121 H 3.3259277 V 2.4070313 H 3.1010742 V 2.9849121 H 2.911377 V 1.7339355 m 1.0957031,1.2619629 q -0.030029,0 -0.065186,-0.00476 -0.035156,-0.00476 -0.06958,-0.020142 Q 3.8378906,2.9556152 3.8060303,2.927417 3.7741699,2.8992188 3.7496338,2.8530762 3.7250977,2.8069336 3.7104492,2.7391846 3.6958008,2.6714355 3.6958008,2.5776855 V 2.1345703 q 0,-0.094482 0.015015,-0.161499 0.015015,-0.067017 0.039917,-0.112793 0.024902,-0.045776 0.056763,-0.072876 0.03186,-0.0271 0.06665,-0.041382 0.03479,-0.014282 0.069214,-0.018677 0.034424,-0.00439 0.063721,-0.00439 0.027832,0 0.06189,0.00403 0.034058,0.00403 0.068115,0.017578 0.034058,0.01355 0.066284,0.040283 0.032227,0.026733 0.057129,0.07251 0.024902,0.045776 0.039917,0.1135254 0.015015,0.067749 0.015015,0.1636963 v 0.4431152 q 0,0.093018 -0.015381,0.1600342 -0.015381,0.067017 -0.040283,0.1135254 -0.024902,0.046509 -0.057495,0.074707 -0.032593,0.028198 -0.06665,0.043945 -0.034058,0.015747 -0.067749,0.020874 -0.033691,0.00513 -0.060791,0.00513 m 0,-0.1428222 q 0.027832,0 0.048706,-0.00952 0.020874,-0.00952 0.034424,-0.032959 0.01355,-0.023437 0.020508,-0.06189 0.00696,-0.038452 0.00696,-0.097046 V 2.0825684 q 0,-0.060059 -0.00696,-0.1003418 -0.00696,-0.040283 -0.020508,-0.064819 -0.01355,-0.024536 -0.034424,-0.03479 -0.020874,-0.010254 -0.048706,-0.010254 -0.028564,0 -0.049805,0.010254 -0.02124,0.010254 -0.035156,0.03479 -0.013916,0.024536 -0.020874,0.064819 -0.00696,0.040283 -0.00696,0.1003418 v 0.5690918 q 0,0.058594 0.00696,0.097046 0.00696,0.038452 0.020874,0.06189 0.013916,0.023437 0.035156,0.032959 0.02124,0.00952 0.049805,0.00952 M 4.4941406,1.7339355 H 4.6838379 V 2.835498 H 4.9423828 V 2.9849121 H 4.4941406 V 1.7339355 M 5.338623,2.9958984 q -0.030029,0 -0.065186,-0.00476 Q 5.238281,2.9863784 5.203857,2.9709964 5.1694336,2.9556152 5.1375732,2.927417 5.1057129,2.8992188 5.0811768,2.8530762 5.0566406,2.8069336 5.0419922,2.7391846 5.0273437,2.6714355 5.0273437,2.5776855 V 2.1345703 q 0,-0.094482 0.015015,-0.161499 0.015015,-0.067017 0.039917,-0.112793 0.024902,-0.045776 0.056763,-0.072876 0.03186,-0.0271 0.06665,-0.041382 0.03479,-0.014282 0.069214,-0.018677 0.034424,-0.00439 0.063721,-0.00439 0.027832,0 0.06189,0.00403 0.034058,0.00403 0.068115,0.017578 0.034058,0.01355 0.066284,0.040283 0.032227,0.026733 0.057129,0.07251 0.024902,0.045776 0.039917,0.1135254 0.015015,0.067749 0.015015,0.1636963 v 0.4431152 q 0,0.093018 -0.015381,0.1600342 -0.015381,0.067017 -0.040283,0.1135254 -0.024902,0.046509 -0.057495,0.074707 -0.032593,0.028198 -0.06665,0.043945 -0.034058,0.015747 -0.067749,0.020874 -0.033691,0.00513 -0.060791,0.00513 m 0,-0.1428222 q 0.027832,0 0.048706,-0.00952 0.020874,-0.00952 0.034424,-0.032959 0.01355,-0.023437 0.020508,-0.06189 0.00696,-0.038452 0.00696,-0.097046 V 2.0825684 q 0,-0.060059 -0.00696,-0.1003418 -0.00696,-0.040283 -0.020508,-0.064819 -0.01355,-0.024536 -0.034424,-0.03479 -0.020874,-0.010254 -0.048706,-0.010254 -0.028564,0 -0.049805,0.010254 -0.02124,0.010254 -0.035156,0.03479 -0.013916,0.024536 -0.020874,0.064819 -0.00696,0.040283 -0.00696,0.1003418 v 0.5690918 q 0,0.058594 0.00696,0.097046 0.00696,0.038452 0.020874,0.06189 0.013916,0.023437 0.035156,0.032959 0.02124,0.00952 0.049805,0.00952 m 0.7397461,0.1435547 q -0.021973,0 -0.05127,-0.00476 -0.029297,-0.00476 -0.060425,-0.020142 -0.031129,-0.01538 -0.061158,-0.043578 -0.03003,-0.028199 -0.053833,-0.074708 Q 5.8278809,2.8069336 5.8132324,2.7391846 5.798584,2.6714355 5.798584,2.5776855 V 2.1345703 q 0,-0.094482 0.015381,-0.161499 0.015381,-0.067017 0.041016,-0.112793 0.025635,-0.045776 0.05896,-0.072876 0.033325,-0.0271 0.069214,-0.041382 0.035889,-0.014282 0.071045,-0.018677 0.035156,-0.00439 0.065186,-0.00439 0.076172,0 0.12854,0.020874 0.052368,0.020874 0.084961,0.057129 0.032593,0.036255 0.046875,0.084595 0.014282,0.04834 0.014282,0.102539 0,0.040283 -0.00476,0.074341 -0.00476,0.034058 -0.012817,0.075073 H 6.2248535 v -0.059326 q 0,-0.2058105 -0.1105957,-0.2058105 -0.030029,0 -0.052002,0.010254 -0.021973,0.010254 -0.036621,0.03479 -0.014648,0.024536 -0.021606,0.064819 -0.00696,0.040283 -0.00696,0.1003418 v 0.5668945 q 0,0.058594 0.00696,0.097412 0.00696,0.038818 0.02124,0.062256 0.014282,0.023437 0.035889,0.033325 0.021606,0.00989 0.051636,0.00989 0.031494,0 0.054199,-0.016479 0.022705,-0.016479 0.037354,-0.045044 0.014648,-0.028564 0.021606,-0.067383 0.00696,-0.038818 0.00696,-0.084229 V 2.4758789 H 6.135498 V 2.3513672 H 6.4174805 V 2.9849121 H 6.2915039 L 6.2709961,2.8662598 q -0.035889,0.06958 -0.082397,0.099976 -0.046509,0.030396 -0.1102295,0.030396 M 6.7404785,2.5681641 6.4885254,1.7339355 h 0.1911621 l 0.1530762,0.5983887 h 0.00879 L 6.9931641,1.7339355 H 7.1835937 L 6.9301758,2.5681641 v 0.416748 H 6.7404785 v -0.416748"
           fill="#52414c"
           fill-rule="nonzero"
           id="path9" /></g><g
         id="g13" /><g
         clip-path="url(#SvgjsClipPath1002)"
         id="g47"><g
           clip-path="url(#SvgjsClipPath1001150dddba-a730-4a90-8536-a20c37069295)"
           id="g17"><path
             d="M -2.2838942,2.6875842 -3.292223,1.6792554 c -0.04995,-0.04989 -0.078017,-0.1175914 -0.078017,-0.188189 0,-0.070598 0.028067,-0.1382991 0.078017,-0.1881891 L -2.5642872,0.57545862 C -2.5820953,0.5132749 -2.593275,0.44938171 -2.5976396,0.3848457 L -3.404044,1.1911855 c -0.079624,0.079616 -0.1243571,0.187604 -0.1243571,0.3002041 0,0.1126 0.044733,0.2205876 0.1243571,0.300204 l 1.1182107,1.1182107 c -0.00469,-0.074024 -0.00404,-0.1482893 0.00194,-0.2222201 z"
             fill="#52414c"
             fill-rule="nonzero"
             id="path15" /></g><g
           clip-path="url(#SvgjsClipPath1001150dddba-a730-4a90-8536-a20c37069295)"
           id="g21"><path
             d="M -2.352021,0.36280467 -2.1526822,0.1635951 c 0.1039194,-0.10390808 0.272394,-0.10390808 0.3763135,0 l 0.3304215,0.33035694 c 0.029991,-0.0590777 0.054359,-0.11246743 0.071811,-0.15228349 L -1.6639013,0.05151549 c -0.079616,-0.07962405 -0.187604,-0.12435702 -0.300204,-0.12435702 -0.1126,0 -0.2205877,0.04473297 -0.3002041,0.12435702 l -0.171739,0.17167443 c 0.01603,0.0300559 0.043953,0.0793089 0.084027,0.13961475 z"
             fill="#14080e"
             fill-rule="nonzero"
             id="path19" /></g><g
           clip-path="url(#SvgjsClipPath1001150dddba-a730-4a90-8536-a20c37069295)"
           id="g25"><path
             d="M -0.52436055,1.1911855 -1.1954163,0.52006517 c -0.00773,0.0618967 -0.021924,0.12281424 -0.042337,0.18175772 L -0.63663407,1.302942 c 0.0499502,0.04989 0.078017,0.1175914 0.078017,0.188189 0,0.070598 -0.0280668,0.1382991 -0.078017,0.1881891 L -1.6564681,2.6996066 c -0.010342,0.078339 -0.019391,0.1615911 -0.02663,0.249626 0.00646,-0.00582 0.012927,-0.011764 0.019391,-0.017969 l 1.13954076,-1.13967 c 0.0796241,-0.079616 0.12435702,-0.187604 0.12435702,-0.300204 0,-0.1126001 -0.044733,-0.2205877 -0.12435702,-0.3002041 z"
             fill="#14080e"
             fill-rule="nonzero"
             id="path23" /></g><g
           clip-path="url(#SvgjsClipPath1001150dddba-a730-4a90-8536-a20c37069295)"
           id="g29"><path
             d="m -1.8935546,2.8875047 c -0.022986,0.00636 -0.046733,0.00956 -0.070583,0.0095 -0.030406,3.47e-5 -0.060594,-0.00512 -0.089263,-0.015254 -0.019219,0.048219 -0.037101,0.09801 -0.053648,0.1493748 0.083141,0.029241 0.1732562,0.032241 0.258158,0.0086 -0.018357,-0.05423 -0.033029,-0.104905 -0.044664,-0.1522189 z"
             fill="#52414c"
             fill-rule="nonzero"
             id="path27" /></g><g
           clip-path="url(#SvgjsClipPath1001150dddba-a730-4a90-8536-a20c37069295)"
           id="g33"><path
             d="m -1.7299598,0.83581427 c 0.076954,-0.0579539 0.1010427,-0.16287544 0.057074,-0.24859182 -0.01358,-0.0415097 -0.044655,-0.0749921 -0.085037,-0.0916275 -0.040382,-0.0166354 -0.086024,-0.0147557 -0.1249019,0.005144 -0.076836,0.0580303 -0.1009033,0.1628581 -0.057074,0.24859182 0.01358,0.0415097 0.044655,0.0749921 0.085037,0.0916276 0.040382,0.0166354 0.086024,0.0147557 0.1249019,-0.005144 z"
             fill="#14080e"
             fill-rule="nonzero"
             id="path31" /></g><g
           clip-path="url(#SvgjsClipPath1001150dddba-a730-4a90-8536-a20c37069295)"
           id="g37"><path
             d="m -1.2735617,0.29674621 c 0,0 -0.2143992,0.55768336 -0.4847735,0.72509179 -0.3250835,-0.18861127 -0.5896599,-0.4659904 -0.7627102,-0.79961763 -0.025496,0.26204413 0.065012,0.52211478 0.2476869,0.71171205 l 0.4554931,0.48845768 c 0.00304,0.00304 0.00517,0.00646 0.00795,0.00976 0.06134,0.071617 0.2964228,0.3194334 0.2577702,0.4902029 0.1786552,-0.2635228 0.071488,-0.6455243 0.071488,-0.6455243 -0.064055,-0.235406 0.048671,-0.3335241 0.094175,-0.43383988 0.099917,-0.16344871 0.1398402,-0.356574 0.1129205,-0.54624261 z"
             fill="#14080e"
             fill-rule="nonzero"
             id="path35" /></g><g
           clip-path="url(#SvgjsClipPath1001150dddba-a730-4a90-8536-a20c37069295)"
           id="g41"><path
             d="m -1.7659623,3.0490959 c 0.019449,-0.3649043 0.082531,-0.726166 0.1878982,-1.0760678 -0.096613,0.1347929 -0.184048,0.2759329 -0.261713,0.4224639 -0.018551,0.1171213 -0.048736,0.3114831 0.073815,0.6536039 z"
             fill="#14080e"
             fill-rule="nonzero"
             id="path39" /></g><g
           clip-path="url(#SvgjsClipPath1001150dddba-a730-4a90-8536-a20c37069295)"
           id="g45"><path
             d="m -1.9064173,1.3893609 c 0.063602,0.046474 0.078469,0.1929398 0.04001,0.2807161 0,0 -0.19559,0.5016436 -0.2313986,0.5881918 -0.1105308,0.2509965 -0.1440716,0.5291537 -0.096373,0.7992298 0.1586179,-0.5308592 0.4792793,-0.9222976 0.5994385,-1.0775544 0.011632,-0.016337 0.018603,-0.035529 0.020167,-0.055523 3.878e-4,-0.1400672 -0.2609374,-0.4840624 -0.3318439,-0.5350603 z"
             fill="#52414c"
             fill-rule="nonzero"
             id="path43" /></g></g></g></g></svg>
